# Blender v2.76 (sub 0) OBJ File: 'main_door-02.blend'
# www.blender.org
mtllib main_door_frame-01.mtl
o Plane
v -3.000000 0.000000 1.000000
v -2.000000 0.000000 1.000000
v -2.500000 3.500000 1.000000
v -2.500000 4.000000 1.000000
v 2.000000 4.000000 1.000000
v 2.000000 3.500000 1.000000
v 2.500000 3.000000 1.000000
v 2.500000 2.000000 1.000000
v 3.000000 2.000000 1.000000
v 3.000000 0.000000 1.000000
v 2.000000 0.000000 1.000000
v 2.000000 2.500000 1.000000
v 1.000000 3.500000 1.000000
v -1.000000 3.500000 1.000000
v -2.000000 2.500000 1.000000
v -2.000000 1.000000 1.000000
v -2.200000 0.800000 1.000000
v -2.200000 0.500000 1.000000
v -2.000000 0.300000 1.000000
v -3.000000 3.000000 1.000000
v -3.000000 0.000000 0.000000
v -2.000000 0.000000 0.000000
v -2.500000 3.500000 -0.000000
v -2.500000 4.000000 -0.000000
v 2.000000 4.000000 -0.000000
v 2.000000 3.500000 -0.000000
v 2.500000 3.000000 -0.000000
v 2.500000 2.000000 -0.000000
v 3.000000 2.000000 -0.000000
v 3.000000 0.000000 0.000000
v 2.000000 0.000000 0.000000
v 2.000000 2.500000 -0.000000
v 1.000000 3.500000 -0.000000
v -1.000000 3.500000 -0.000000
v -2.000000 2.500000 -0.000000
v -2.000000 1.000000 -0.000000
v -2.200000 0.800000 -0.000000
v -2.200000 0.500000 -0.000000
v -2.000000 0.300000 -0.000000
v -3.000000 3.000000 -0.000000
vt 1.666666 0.888889
vt 1.666666 0.444444
vt 1.777777 0.222222
vt 0.000000 0.222222
vt 0.111111 0.222222
vt 0.111111 0.444445
vt 0.222222 1.777778
vt 0.000000 1.777778
vt 0.000000 1.333333
vt 0.666667 1.555556
vt 0.888889 1.555556
vt 0.888889 1.666667
vt 0.222222 2.000000
vt 0.000000 2.000000
vt 0.666667 1.333333
vt 0.888889 1.333333
vt 1.111111 1.666667
vt 1.222222 1.777778
vt 1.222222 1.555556
vt 1.333333 1.555556
vt 1.333333 1.333333
vt 1.111111 1.555556
vt 1.488889 1.555556
vt 1.488889 1.777778
vt 1.444444 1.777778
vt 0.444444 1.333333
vt 0.666667 1.777778
vt 0.444444 2.000000
vt 0.222222 1.333333
vt 1.666667 1.555556
vt 1.666667 1.333333
vt 1.733333 1.333333
vt 1.555556 1.333333
vt 1.555556 1.555556
vt 1.444444 1.555556
vt 1.333333 1.777778
vt 1.622222 1.555556
vt 1.622222 1.333333
vt 2.000000 1.555556
vt 1.777778 1.555556
vt 1.777778 1.000000
vt 1.777778 0.000000
vt 2.000000 0.000000
vt 2.000000 1.000000
vt 2.000000 1.777778
vt 1.777778 1.777778
vt 0.666667 1.666667
vt 0.888889 1.777778
vt 1.111111 1.777778
vt 0.888889 1.111111
vt 1.000000 1.155555
vt 1.666667 1.222222
vt 1.444444 1.111111
vt 1.777778 1.222222
vt 1.333333 0.111111
vt 1.555555 0.111111
vt 1.444444 0.222222
vt 0.955556 1.111111
vt 0.888889 0.000000
vt 1.333333 0.000000
vt 1.066667 1.155555
vt 0.888889 0.222222
vt 1.666666 0.222222
vt 1.111111 1.111111
vt 0.711111 1.155555
vt 0.822222 1.111111
vt 0.777778 1.155555
vt 0.333333 1.111111
vt 0.666667 1.111111
vt 0.444444 0.111111
vt 0.444444 0.000000
vt 0.333333 0.222222
vt 0.111111 1.222222
vt 0.222222 0.111111
vt 0.111111 0.888889
vt 0.000000 1.222222
vt 1.111111 1.333333
vt 0.444444 1.777778
vt 1.733333 1.555555
vn 0.000000 0.000000 1.000000
vn 0.000000 -0.000000 -1.000000
vn 0.000000 -1.000000 0.000000
vn 0.707100 0.707100 0.000000
vn 0.707100 -0.707100 0.000000
vn 1.000000 0.000000 0.000000
vn 0.000000 1.000000 -0.000000
vn -1.000000 -0.000000 0.000000
vn -0.707100 -0.707100 0.000000
vn -0.707100 0.707100 0.000000
usemtl None
s off
f 14/1/1 13/2/1 5/3/1
f 25/4/2 26/5/2 33/6/2
f 14/7/3 34/8/3 33/9/3
f 7/10/4 27/11/4 26/12/4
f 15/13/5 35/14/5 34/8/5
f 8/15/6 28/16/6 27/11/6
f 16/17/6 36/12/6 35/16/6
f 9/18/7 29/19/7 28/20/7
f 1/21/3 21/20/3 22/22/3
f 17/23/5 37/24/5 36/25/5
f 10/26/6 30/15/6 29/27/6
f 20/28/8 40/13/8 21/29/8
f 18/30/6 38/31/6 37/32/6
f 11/33/3 31/34/3 30/20/3
f 4/35/8 24/25/8 23/36/8
f 19/37/4 39/38/4 38/31/4
f 12/39/8 32/40/8 31/41/8
f 5/42/7 25/43/7 24/44/7
f 2/34/6 22/33/6 39/38/6
f 13/45/9 33/46/9 32/40/9
f 6/47/6 26/12/6 25/48/6
f 3/19/10 23/18/10 40/49/10
f 1/16/1 2/50/1 18/51/1
f 3/52/1 20/33/1 15/53/1
f 5/3/1 4/54/1 14/1/1
f 8/55/1 7/56/1 12/57/1
f 2/50/1 19/58/1 18/51/1
f 10/59/1 9/60/1 8/55/1
f 20/33/1 1/16/1 17/61/1
f 10/59/1 8/55/1 11/62/1
f 1/16/1 18/51/1 17/61/1
f 12/57/1 11/62/1 8/55/1
f 20/33/1 17/61/1 15/53/1
f 12/57/1 7/56/1 6/63/1
f 17/61/1 16/64/1 15/53/1
f 12/57/1 6/63/1 13/2/1
f 3/52/1 15/53/1 14/1/1
f 13/2/1 6/63/1 5/3/1
f 4/54/1 3/52/1 14/1/1
f 21/16/2 40/29/2 37/65/2
f 39/66/2 22/50/2 38/67/2
f 35/68/2 36/69/2 37/65/2
f 38/67/2 22/50/2 21/16/2
f 30/59/2 31/62/2 28/70/2
f 37/65/2 38/67/2 21/16/2
f 28/70/2 29/71/2 30/59/2
f 35/68/2 37/65/2 40/29/2
f 28/70/2 31/62/2 32/72/2
f 35/68/2 40/29/2 23/73/2
f 28/70/2 32/72/2 27/74/2
f 34/75/2 35/68/2 23/73/2
f 27/74/2 32/72/2 26/5/2
f 33/6/2 34/75/2 25/4/2
f 23/73/2 24/76/2 34/75/2
f 26/5/2 32/72/2 33/6/2
f 34/75/2 24/76/2 25/4/2
f 13/29/3 14/7/3 33/9/3
f 6/47/4 7/10/4 26/12/4
f 14/7/5 15/13/5 34/8/5
f 7/10/6 8/15/6 27/11/6
f 15/77/6 16/17/6 35/16/6
f 8/36/7 9/18/7 28/20/7
f 2/77/3 1/21/3 22/22/3
f 16/35/5 17/23/5 36/25/5
f 9/78/6 10/26/6 29/27/6
f 1/26/8 20/28/8 21/29/8
f 17/79/6 18/30/6 37/32/6
f 10/21/3 11/33/3 30/20/3
f 3/20/8 4/35/8 23/36/8
f 18/30/4 19/37/4 38/31/4
f 11/44/8 12/39/8 31/41/8
f 4/41/7 5/42/7 24/44/7
f 19/37/6 2/34/6 39/38/6
f 12/39/9 13/45/9 32/40/9
f 5/27/6 6/47/6 25/48/6
f 20/22/10 3/19/10 40/49/10
