# Blender v2.76 (sub 0) OBJ File: 'main_door-02.blend'
# www.blender.org
mtllib main_door_terminal-01.mtl
o Plane.001_Plane.002
v 2.000000 3.500000 -0.000000
v 4.000000 3.500000 -0.000000
v 4.500000 3.000000 -0.000000
v 4.500000 1.000000 -0.000000
v 4.300000 1.000000 -0.000000
v 4.300000 1.100000 -0.000000
v 3.900000 1.100000 -0.000000
v 3.900000 1.000000 -0.000000
v 3.700000 1.000000 -0.000000
v 3.700000 1.300000 -0.000000
v 3.300000 1.300000 -0.000000
v 3.300000 0.600000 -0.000000
v 3.000000 0.300000 -0.000000
v 2.300000 0.300000 -0.000000
v 2.300000 2.900000 -0.000000
v 1.700000 3.500000 -0.000000
v 2.000000 3.500000 0.500000
v 4.000000 3.500000 0.500000
v 4.500000 3.000000 0.500000
v 4.500000 1.000000 0.500000
v 4.300000 1.000000 0.500000
v 4.300000 1.100000 0.500000
v 3.900000 1.100000 0.500000
v 3.900000 1.000000 0.500000
v 3.700000 1.000000 0.500000
v 3.700000 1.300000 0.500000
v 3.300000 1.300000 0.500000
v 3.300000 0.600000 0.500000
v 3.000000 0.300000 0.500000
v 2.300000 0.300000 0.500000
v 2.300000 2.900000 0.500000
v 1.700000 3.500000 0.500000
vt 0.821429 0.000000
vt 0.571429 0.733333
vt 0.214286 0.200000
vt 1.214286 0.866667
vt 1.571429 0.333333
vt 1.821429 1.066666
vt 0.714286 1.066667
vt 0.892857 1.066667
vt 0.892857 1.300000
vt 0.892857 1.466667
vt 1.035715 1.300000
vt 0.178572 1.066667
vt 0.357143 1.066667
vt 0.357143 1.933333
vt 1.321429 1.133334
vt 1.357143 1.133333
vt 1.357143 1.300000
vt 0.714286 1.300000
vt 0.892857 1.500000
vt 1.214286 1.300000
vt 1.214286 1.133333
vt 1.285715 1.133333
vt 0.000000 1.166667
vt 0.178571 1.166667
vt 0.178572 1.833333
vt 0.000000 1.066667
vt 1.142857 1.133334
vt 1.142857 1.300000
vt 0.000000 1.833333
vt 0.178572 2.000000
vt 0.892857 1.133334
vt 1.035715 1.133333
vt 0.535714 1.733333
vt 0.357143 1.733333
vt 0.714286 1.400000
vt 0.535715 1.400000
vt 0.535714 1.166667
vt 0.714286 1.166667
vt 0.535715 1.066667
vt 1.321429 1.300000
vt 1.285715 1.300000
vt 0.000000 0.000000
vt 0.107143 0.000000
vt 1.000000 0.166667
vt 1.000000 0.833333
vt 0.928572 0.833333
vt 0.928572 0.800000
vt 0.785715 0.800000
vt 0.785715 0.833333
vt 0.714286 0.833333
vt 0.714286 0.733333
vt 0.464286 1.066666
vt 0.214286 1.066667
vt 0.571429 0.966666
vt 1.107143 1.066666
vt 1.214286 0.000000
vt 1.000000 1.066667
vt 2.000000 0.233333
vt 2.000000 0.900000
vt 1.928571 0.266666
vt 1.928571 0.233333
vt 1.714286 0.233333
vt 1.785714 0.233333
vt 1.785714 0.266667
vt 1.714286 0.333333
vt 1.464286 0.000000
vt 1.571429 0.100000
vt 1.035715 1.466667
vt 0.178572 1.933333
vt 0.714286 1.500000
vt 0.000000 2.000000
vn -0.000000 -0.000000 -1.000000
vn -0.000000 0.000000 1.000000
vn 0.000000 -1.000000 -0.000000
vn -1.000000 0.000000 0.000000
vn 1.000000 0.000000 0.000000
vn -0.707100 -0.707100 0.000000
vn 0.000000 1.000000 0.000000
vn 0.707100 0.707100 0.000000
vn 0.707100 -0.707100 0.000000
usemtl None
s off
f 2/1/1 11/2/1 15/3/1
f 31/4/2 27/5/2 18/6/2
f 13/7/3 29/8/3 30/9/3
f 6/10/3 22/9/3 23/11/3
f 14/12/4 30/13/4 31/14/4
f 8/15/5 7/16/5 23/17/5
f 15/18/6 31/9/6 32/19/6
f 8/20/3 24/21/3 25/22/3
f 1/23/7 17/24/7 18/25/7
f 16/26/7 32/12/7 17/24/7
f 9/27/4 25/28/4 26/11/4
f 2/29/8 18/25/8 19/30/8
f 10/9/3 26/31/3 27/32/3
f 3/33/5 19/34/5 20/13/5
f 11/35/5 27/36/5 28/37/5
f 4/28/3 20/27/3 21/21/3
f 12/38/9 28/37/9 29/39/9
f 5/15/4 21/40/4 22/41/4
f 16/42/1 1/43/1 15/3/1
f 2/1/1 3/44/1 11/2/1
f 4/45/1 5/46/1 6/47/1
f 7/48/1 8/49/1 9/50/1
f 3/44/1 4/45/1 6/47/1
f 7/48/1 9/50/1 10/51/1
f 3/44/1 6/47/1 10/51/1
f 15/3/1 1/43/1 2/1/1
f 13/52/1 14/53/1 11/2/1
f 11/2/1 12/54/1 13/52/1
f 6/47/1 7/48/1 10/51/1
f 11/2/1 14/53/1 15/3/1
f 3/44/1 10/51/1 11/2/1
f 18/6/2 17/55/2 31/4/2
f 31/4/2 30/56/2 27/5/2
f 17/55/2 32/57/2 31/4/2
f 20/58/2 19/59/2 22/60/2
f 22/60/2 21/61/2 20/58/2
f 25/62/2 24/63/2 23/64/2
f 22/60/2 19/59/2 26/65/2
f 26/65/2 25/62/2 23/64/2
f 23/64/2 22/60/2 26/65/2
f 30/56/2 29/66/2 27/5/2
f 19/59/2 27/5/2 26/65/2
f 29/66/2 28/67/2 27/5/2
f 19/59/2 18/6/2 27/5/2
f 14/18/3 13/7/3 30/9/3
f 7/68/3 6/10/3 23/11/3
f 15/69/4 14/12/4 31/14/4
f 24/40/5 8/15/5 23/17/5
f 16/70/6 15/18/6 32/19/6
f 9/41/3 8/20/3 25/22/3
f 2/29/7 1/23/7 18/25/7
f 1/23/7 16/26/7 17/24/7
f 10/32/4 9/27/4 26/11/4
f 3/71/8 2/29/8 19/30/8
f 11/11/3 10/9/3 27/32/3
f 4/39/5 3/33/5 20/13/5
f 12/38/5 11/35/5 28/37/5
f 5/20/3 4/28/3 21/21/3
f 13/7/9 12/38/9 29/39/9
f 6/22/4 5/15/4 22/41/4
